# xmcd
# 
# Track frame offsets:
#     150
#     19365
#     34099
#     50500
#     71142
# 
# Disc length: 1208
# 
# Revision: 0
# Processed by: cddbd v1.5.2PL0 Copyright (c) Steve Scherf et al.
# Submitted via: fre:ac v1.0.17
# 
DISCID=4304b605
DTITLE=Choco top Chest - chocolate palette
DYEAR=2007
DGENRE=Pop
TTITLE0=MY FRIEND
TTITLE1=Juggler
TTITLE2=Dream Drinker
TTITLE3=秒針
TTITLE4=マスカラ
EXTD=edited by ergong
EXTT0=
EXTT1=
EXTT2=
EXTT3=
EXTT4=
PLAYORDER=
